<svg xmlns="http://www.w3.org/2000/svg" width="22" height="22" viewBox="0 0 22 22">
  <defs>
    <style>
      .cls-1 {
        fill: none;
      }

      .cls-2 {
        fill: #fff;
      }
    </style>
  </defs>
  <g id="筛选" transform="translate(-339 -53)">
    <rect id="矩形_4" data-name="矩形 4" class="cls-1" width="22" height="22" transform="translate(339 53)"/>
    <g id="组_2290" data-name="组 2290" transform="translate(-588.833 -260.48)">
      <path id="路径_960" data-name="路径 960" class="cls-2" d="M938.958,335.206a1.649,1.649,0,0,1-.561-.1l-4.231-1.527a1.652,1.652,0,0,1-1.09-1.575l.124-9.249-5-6.144a1.651,1.651,0,0,1,1.266-2.692l14.48-.141h.016a1.651,1.651,0,0,1,1.346,2.609l-4.521,6.348-.181,10.846a1.651,1.651,0,0,1-1.653,1.623Zm-4.05-3.3,3.877,1.4.182-10.881a.914.914,0,0,1,.169-.515l4.483-6.295-13.761.134,4.971,6.115a.913.913,0,0,1,.2.589Z" transform="translate(0 0)"/>
      <path id="路径_961" data-name="路径 961" class="cls-2" d="M1035.8,375.058h-4.531a.912.912,0,1,1,0-1.824h4.531a.912.912,0,1,1,0,1.824Z" transform="translate(-86.878 -50.389)"/>
      <path id="路径_962" data-name="路径 962" class="cls-2" d="M1035.8,403.858h-4.531a.912.912,0,1,1,0-1.824h4.531a.912.912,0,1,1,0,1.824Z" transform="translate(-86.878 -74.798)"/>
      <path id="路径_963" data-name="路径 963" class="cls-2" d="M1035.8,432.957h-4.531a.912.912,0,1,1,0-1.824h4.531a.912.912,0,1,1,0,1.824Z" transform="translate(-86.878 -99.456)"/>
    </g>
  </g>
</svg>
