<svg xmlns="http://www.w3.org/2000/svg" xmlns:xlink="http://www.w3.org/1999/xlink" width="16" height="16" viewBox="0 0 16 16">
  <defs>
    <style>
      .cls-1 {
        fill: none;
      }

      .cls-2 {
        fill: url(#linear-gradient);
      }

      .cls-3 {
        fill: #fff;
      }
    </style>
    <linearGradient id="linear-gradient" x2="1" y2="1" gradientUnits="objectBoundingBox">
      <stop offset="0" stop-color="#2b2bf9"/>
      <stop offset="1" stop-color="#1b74d9"/>
    </linearGradient>
  </defs>
  <g id="CSGO图标" transform="translate(-106 -258)">
    <rect id="矩形_396" data-name="矩形 396" class="cls-1" width="16" height="16" transform="translate(106 258)"/>
    <g id="组_251" data-name="组 251" transform="translate(-224 128)">
      <rect id="矩形_74" data-name="矩形 74" class="cls-2" width="14" height="14" rx="3" transform="translate(331 131)"/>
      <path id="路径_365" data-name="路径 365" class="cls-3" d="M-266.258,312.926c-.286-.082-.266-.082-.225-.348a3.646,3.646,0,0,0,.041-.471c0-.123.041-.164.164-.164.225,0,.2,0,.184-.225a1.333,1.333,0,0,1,.225-.962.622.622,0,0,1,.471-.266.26.26,0,0,1,.123.02.29.29,0,0,1,.123.041c0-.041.021-.1,0-.143a.7.7,0,0,1,.573-.9c.143-.02.287.082.409.123.246.061.266.287.286.491.021.123.021.266-.164.327-.041.02-.061.143-.082.225.246.061.246-.041.471-.123.225.041.184.1.327.1h1.535a.925.925,0,0,1,.225.061c0-.082.123-.02.184.143.184-.02.368-.02.532-.041a1.164,1.164,0,0,1,.266.021c.02,0,.041.041.041.041,0,.021-.041.061-.041.061h-.266a4.6,4.6,0,0,0-.532,0,6.154,6.154,0,0,1-.86.1.431.431,0,0,0-.43.532l.061.184c-.164.041-.184.164-.2.287a.566.566,0,0,1-.368.43.592.592,0,0,1-.368-.041c-.184-.061-.348-.164-.532-.246-.041.1-.1.2.061.266a.146.146,0,0,1,.061.123c-.021.307-.041.594-.082.9-.021.1-.082.164-.2.1-.021,0-.1.041-.1.061a.761.761,0,0,0,.082.307,3.464,3.464,0,0,1,.614,1.105c.041.1.123.2.164.327a2.224,2.224,0,0,1,0,.9,2.457,2.457,0,0,0,0,.389.994.994,0,0,1-.021.246l-.061.307a.707.707,0,0,0,.471.7.33.33,0,0,1,.143.082.136.136,0,0,1,.041.143c0,.02-.082.061-.1.061l-.737-.061h-.307c-.123,0-.184-.041-.143-.184a1.889,1.889,0,0,0,.1-.757c-.021-.123-.061-.246-.082-.368a3.581,3.581,0,0,1-.082-.655,2.14,2.14,0,0,1,.082-.348c.041-.164-.02-.2-.184-.246a.367.367,0,0,1-.2-.123c-.123-.164-.225-.327-.348-.512-.02-.02-.041-.082-.061-.082-.164.02-.225-.123-.307-.266-.123.266-.246.491-.348.716a.78.78,0,0,1-.061.2.956.956,0,0,1-.1.2c-.1.164-.2.307-.307.45,0,.02-.02.02-.02.041.061.348-.184.614-.287.9-.02.1-.164.164-.2.266a.826.826,0,0,0-.041.7c.061.143.02.2-.143.2h-.348a.157.157,0,0,1-.164-.2c.041-.225.1-.45.143-.675.02-.1,0-.225.02-.348s.041-.225.061-.348a2.594,2.594,0,0,1,.123-.368,4.084,4.084,0,0,1,.2-.43,2.054,2.054,0,0,0,.164-.286.386.386,0,0,0,.041-.164l.061-.8c0-.061-.02-.143-.02-.2,0-.143-.021-.286-.021-.43,0-.041.021-.1.041-.1.143-.041.082-.143.082-.2-.021-.164-.041-.307-.061-.471.062-.123.041-.266.225-.327Zm2.988-1.289c.082-.143.184-.246.246-.368a.127.127,0,0,0-.041-.143c-.021-.021-.1,0-.143.02a1.3,1.3,0,0,0-.2.246C-263.372,311.453-263.332,311.534-263.27,311.637Z" transform="translate(602.881 -176.002)"/>
    </g>
  </g>
</svg>
