<svg xmlns="http://www.w3.org/2000/svg" xmlns:xlink="http://www.w3.org/1999/xlink" width="16" height="16" viewBox="0 0 16 16">
  <defs>
    <style>
      .cls-1 {
        fill: #fff;
      }

      .cls-2 {
        fill: none;
      }

      .cls-3 {
        fill: url(#linear-gradient);
      }

      .cls-4 {
        clip-path: url(#clip-path);
      }
    </style>
    <linearGradient id="linear-gradient" x2="1" y2="1" gradientUnits="objectBoundingBox">
      <stop offset="0" stop-color="#2b2bf9"/>
      <stop offset="1" stop-color="#1b74d9"/>
    </linearGradient>
    <clipPath id="clip-path">
      <rect id="fenlei-dota-2备份_2" data-name="fenlei-dota-2备份 2" class="cls-1" width="8" height="8"/>
    </clipPath>
  </defs>
  <g id="DOTA2图标" transform="translate(-158 -258)">
    <rect id="矩形_394" data-name="矩形 394" class="cls-2" width="16" height="16" transform="translate(158 258)"/>
    <g id="组_1076" data-name="组 1076" transform="translate(-177 -167)">
      <rect id="矩形_74" data-name="矩形 74" class="cls-3" width="14" height="14" rx="3" transform="translate(336 426)"/>
      <g id="蒙版组_6" data-name="蒙版组 6" class="cls-4" transform="translate(339 429)">
        <path id="dota2" class="cls-1" d="M.714,1.861A1.146,1.146,0,0,1,1.861.714H7.568A1.146,1.146,0,0,1,8.714,1.861V7.568A1.146,1.146,0,0,1,7.569,8.714H1.861A1.146,1.146,0,0,1,.714,7.569ZM4.605,7.15l-2.219-2.1c-.021.021-.032.028-.036.039L1.665,6.814c-.03.075.006.114.059.155a5.839,5.839,0,0,1,.467.369.95.95,0,0,0,.858.3c.207-.033.425,0,.6-.16.034-.032.1-.027.153-.046.261-.091.52-.18.805-.279Zm1.2-5.19a1.742,1.742,0,0,0-.686.233.357.357,0,0,0,.036.046c.75.572,1.5,1.15,2.258,1.712a1.019,1.019,0,0,0,.352.091.812.812,0,0,0,0-.157,1.924,1.924,0,0,1,.124-.9,1.907,1.907,0,0,0,.089-.669.316.316,0,0,0-.165-.285,1.417,1.417,0,0,1-.32-.21.627.627,0,0,0-.7-.108,4.29,4.29,0,0,1-.987.246Zm-3.8.157c-.118.046-.234.1-.352.151.266.271.537.546.806.823.118.121.237.242.351.366.142.156.274.32.417.473.176.183.366.352.545.533.286.291.567.586.849.88a.876.876,0,0,1,.066.085c.063.076.126.153.192.229a5.045,5.045,0,0,1,.589.572.5.5,0,0,0,.062.078q.476.486.955.97a.183.183,0,0,0,.1.059c.254.023.508.046.764.053A.256.256,0,0,0,7.613,7.2c.021-.059.041-.12.063-.179a6.1,6.1,0,0,0,.31-1.063.1.1,0,0,0-.054-.124c-.1-.063-.2-.131-.3-.2S7.41,5.486,7.3,5.411a1.109,1.109,0,0,1-.31-.223A.777.777,0,0,0,6.8,5.041q-1.429-.948-2.86-1.893-.277-.183-.567-.347c-.082-.046-.187-.053-.215-.167,0-.019-.042-.031-.066-.046-.134-.069-.267-.142-.4-.21a.533.533,0,0,1-.224-.205.225.225,0,0,0-.278-.116,1.1,1.1,0,0,0-.181.06Z" transform="translate(-0.714 -0.714)"/>
      </g>
    </g>
  </g>
</svg>
